<?xml version="1.0" standalone="no"?>
<!DOCTYPE svg PUBLIC "-//W3C//DTD SVG 20010904//EN"
 "http://www.w3.org/TR/2001/REC-SVG-20010904/DTD/svg10.dtd">
<svg version="1.0" xmlns="http://www.w3.org/2000/svg"
 width="48.000000pt" height="48.000000pt" viewBox="0 0 48.000000 48.000000"
 preserveAspectRatio="xMidYMid meet">

<g transform="translate(0.000000,48.000000) scale(0.100000,-0.100000)"
fill="#000000" stroke="none">
<path d="M150 412 c-19 -10 -48 -36 -64 -56 -26 -31 -31 -47 -34 -104 -4 -79
14 -119 72 -166 31 -26 47 -31 104 -34 79 -4 119 14 166 72 26 31 31 47 34
104 4 79 -14 119 -72 166 -31 26 -47 31 -104 34 -52 2 -75 -1 -102 -16z m189
-25 c114 -76 101 -246 -24 -307 -88 -43 -191 -6 -235 85 -78 160 109 321 259
222z"/>
</g>
</svg>
