<?xml version="1.0" standalone="no"?>
<!DOCTYPE svg PUBLIC "-//W3C//DTD SVG 20010904//EN"
 "http://www.w3.org/TR/2001/REC-SVG-20010904/DTD/svg10.dtd">
<svg version="1.0" xmlns="http://www.w3.org/2000/svg"
 width="48.000000pt" height="48.000000pt" viewBox="0 0 48.000000 48.000000"
 preserveAspectRatio="xMidYMid meet">

<g transform="translate(0.000000,48.000000) scale(0.100000,-0.100000)"
fill="#000000" stroke="none">
<path d="M327 402 c-24 -27 -21 -38 18 -68 34 -26 36 -26 55 -9 27 24 25 36
-8 68 -33 32 -43 33 -65 9z"/>
<path d="M167 242 c-98 -98 -107 -111 -107 -145 0 -36 1 -37 38 -37 34 0 46 9
147 110 l109 110 -34 35 c-19 19 -36 35 -40 35 -3 0 -54 -48 -113 -108z"/>
</g>
</svg>
