<?xml version="1.0" standalone="no"?>
<!DOCTYPE svg PUBLIC "-//W3C//DTD SVG 20010904//EN"
 "http://www.w3.org/TR/2001/REC-SVG-20010904/DTD/svg10.dtd">
<svg version="1.0" xmlns="http://www.w3.org/2000/svg"
 width="48.000000pt" height="48.000000pt" viewBox="0 0 48.000000 48.000000"
 preserveAspectRatio="xMidYMid meet">

<g transform="translate(0.000000,48.000000) scale(0.100000,-0.100000)"
fill="#000000" stroke="none">
<path d="M197 444 c-4 -4 -7 -18 -7 -30 0 -34 -18 -39 -46 -13 l-25 23 -31
-32 -32 -31 23 -25 c27 -29 22 -43 -22 -54 -25 -6 -33 -14 -35 -36 -4 -34 13
-56 44 -56 34 0 39 -18 13 -46 l-23 -25 32 -31 31 -32 25 23 c28 26 46 21 46
-13 0 -29 18 -46 50 -46 32 0 50 17 50 46 0 34 18 39 46 13 l25 -23 31 32 32
31 -23 25 c-26 28 -21 46 13 46 31 0 48 22 44 56 -2 22 -10 30 -35 36 -44 11
-49 25 -22 54 l23 25 -32 31 c-29 30 -32 31 -49 16 -31 -28 -46 -26 -52 7 -5
27 -10 30 -46 33 -23 2 -44 0 -48 -4z m63 -48 c14 -38 46 -51 77 -31 34 23 51
6 28 -28 -20 -31 -7 -63 31 -77 29 -11 32 -40 4 -40 -11 0 -27 -11 -36 -25
-15 -23 -15 -27 1 -51 23 -35 6 -52 -28 -29 -32 21 -64 7 -79 -36 -13 -37 -23
-37 -36 0 -15 43 -47 57 -79 36 -34 -23 -51 -6 -28 29 16 24 16 28 1 51 -9 14
-25 25 -36 25 -28 0 -25 29 4 40 38 14 51 46 31 77 -23 34 -6 51 28 28 31 -20
63 -7 77 31 5 13 14 24 20 24 6 0 15 -11 20 -24z"/>
<path d="M175 305 c-35 -34 -35 -96 0 -130 18 -19 35 -25 65 -25 56 0 90 34
90 90 0 56 -34 90 -90 90 -30 0 -47 -6 -65 -25z m109 -21 c20 -20 20 -68 0
-88 -20 -20 -68 -20 -88 0 -20 20 -20 68 0 88 8 9 28 16 44 16 16 0 36 -7 44
-16z"/>
</g>
</svg>
