<?xml version="1.0" standalone="no"?>
<!DOCTYPE svg PUBLIC "-//W3C//DTD SVG 20010904//EN"
 "http://www.w3.org/TR/2001/REC-SVG-20010904/DTD/svg10.dtd">
<svg version="1.0" xmlns="http://www.w3.org/2000/svg"
 width="64.000000pt" height="64.000000pt" viewBox="0 0 64.000000 64.000000"
 preserveAspectRatio="xMidYMid meet">

<g transform="translate(0.000000,64.000000) scale(0.100000,-0.100000)"
fill="#000000" stroke="none">
<path d="M120 535 c-16 -17 -30 -23 -45 -19 -34 8 -38 -20 -6 -50 l26 -25 45
38 c38 33 43 42 34 57 -16 27 -28 27 -54 -1z"/>
<path d="M230 500 l0 -30 175 0 175 0 0 30 0 30 -175 0 -175 0 0 -30z"/>
<path d="M120 355 c-16 -17 -30 -23 -45 -19 -34 8 -38 -20 -6 -50 l26 -25 45
38 c38 33 43 42 34 57 -16 27 -28 27 -54 -1z"/>
<path d="M230 320 l0 -30 175 0 175 0 0 30 0 30 -175 0 -175 0 0 -30z"/>
<path d="M72 178 c-17 -17 -15 -53 3 -68 8 -7 25 -10 40 -6 29 7 44 49 25 71
-15 18 -51 20 -68 3z"/>
<path d="M230 140 l0 -30 175 0 175 0 0 30 0 30 -175 0 -175 0 0 -30z"/>
</g>
</svg>
