<?xml version="1.0" standalone="no"?>
<!DOCTYPE svg PUBLIC "-//W3C//DTD SVG 20010904//EN"
 "http://www.w3.org/TR/2001/REC-SVG-20010904/DTD/svg10.dtd">
<svg version="1.0" xmlns="http://www.w3.org/2000/svg"
 width="48.000000pt" height="48.000000pt" viewBox="0 0 48.000000 48.000000"
 preserveAspectRatio="xMidYMid meet">

<g transform="translate(0.000000,48.000000) scale(0.100000,-0.100000)"
fill="#FFFFFF" stroke="none">
<path d="M180 454 c-46 -20 -87 -59 -113 -109 -30 -56 -31 -175 -2 -225 42
-71 137 -122 200 -106 23 6 25 11 25 62 0 67 18 80 55 39 31 -33 53 -29 82 14
31 45 38 95 25 161 -29 137 -156 214 -272 164z m137 -19 c48 -20 71 -41 95
-88 39 -77 33 -181 -13 -223 -19 -17 -21 -17 -45 9 -48 52 -84 30 -84 -50 0
-51 -1 -53 -27 -53 -41 1 -105 33 -135 68 -37 44 -51 95 -45 157 15 143 136
229 254 180z"/>
<path d="M240 405 c-26 -32 13 -81 48 -59 22 14 27 41 12 59 -16 19 -44 19
-60 0z m46 -16 c10 -17 -13 -36 -27 -22 -12 12 -4 33 11 33 5 0 12 -5 16 -11z"/>
<path d="M150 365 c-15 -18 -10 -45 13 -59 34 -22 73 27 47 59 -16 19 -44 19
-60 0z m46 -16 c10 -17 -13 -36 -27 -22 -12 12 -4 33 11 33 5 0 12 -5 16 -11z"/>
<path d="M330 335 c-26 -32 13 -81 48 -59 22 14 27 41 12 59 -16 19 -44 19
-60 0z m46 -16 c10 -17 -13 -36 -27 -22 -12 12 -4 33 11 33 5 0 12 -5 16 -11z"/>
<path d="M100 275 c-15 -18 -10 -45 13 -59 34 -22 73 27 47 59 -16 19 -44 19
-60 0z m46 -16 c10 -17 -13 -36 -27 -22 -12 12 -4 33 11 33 5 0 12 -5 16 -11z"/>
<path d="M156 154 c-31 -30 -9 -84 34 -84 24 0 50 26 50 50 0 24 -26 50 -50
50 -10 0 -26 -7 -34 -16z m59 -34 c0 -18 -6 -26 -23 -28 -24 -4 -38 18 -28 44
3 9 15 14 28 12 17 -2 23 -10 23 -28z"/>
</g>
</svg>
