<?xml version="1.0" standalone="no"?>
<!DOCTYPE svg PUBLIC "-//W3C//DTD SVG 20010904//EN"
 "http://www.w3.org/TR/2001/REC-SVG-20010904/DTD/svg10.dtd">
<svg version="1.0" xmlns="http://www.w3.org/2000/svg"
 width="50.000000pt" height="50.000000pt" viewBox="0 0 50.000000 50.000000"
 preserveAspectRatio="xMidYMid meet">

<g transform="translate(0.000000,50.000000) scale(0.100000,-0.100000)"
fill="#FFFFFF" stroke="none">
<path d="M182 480 c-66 -40 -96 -135 -43 -135 19 0 27 7 33 32 16 63 88 83
133 38 36 -35 33 -79 -6 -116 -17 -16 -34 -29 -38 -29 -20 0 -42 -67 -39 -115
3 -46 5 -50 28 -50 23 0 25 5 30 53 5 48 10 57 47 88 24 19 47 50 53 70 40
120 -91 229 -198 164z m152 -39 c26 -27 31 -39 31 -82 0 -48 -3 -52 -52 -99
-49 -45 -53 -51 -53 -94 0 -25 -4 -46 -10 -46 -15 0 -12 77 4 108 8 15 26 34
41 42 62 33 71 106 21 156 -54 54 -132 39 -157 -31 -15 -41 -34 -47 -24 -7 7
31 40 70 70 83 37 16 96 3 129 -30z"/>
<path d="M220 30 c0 -27 3 -30 30 -30 27 0 30 3 30 30 0 27 -3 30 -30 30 -27
0 -30 -3 -30 -30z m40 0 c0 -5 -4 -10 -10 -10 -5 0 -10 5 -10 10 0 6 5 10 10
10 6 0 10 -4 10 -10z"/>
</g>
</svg>
