<?xml version="1.0" encoding="UTF-8"?>
<!DOCTYPE svg PUBLIC "-//W3C//DTD SVG 1.1//EN" "http://www.w3.org/Graphics/SVG/1.1/DTD/svg11.dtd">
<svg xmlns="http://www.w3.org/2000/svg" version="1.1" width="512px" height="512px" style="shape-rendering:geometricPrecision; text-rendering:geometricPrecision; image-rendering:optimizeQuality; fill-rule:evenodd; clip-rule:evenodd" xmlns:xlink="http://www.w3.org/1999/xlink">
<g><path style="opacity:1" fill="#fefffe" d="M 237.5,-0.5 C 249.167,-0.5 260.833,-0.5 272.5,-0.5C 330.641,8.48772 372.474,39.4877 398,92.5C 420.846,152.078 412.513,206.745 373,256.5C 357.264,274.45 338.431,288.116 316.5,297.5C 315.667,310.487 315.167,323.487 315,336.5C 308.223,368.779 288.39,385.779 255.5,387.5C 221.374,385.21 201.207,367.21 195,333.5C 194.333,303.167 194.333,272.833 195,242.5C 199.491,216.345 214.325,199.179 239.5,191C 248.556,189.965 257.556,188.632 266.5,187C 284.942,178.617 292.109,164.45 288,144.5C 277.539,121.691 260.706,115.191 237.5,125C 231.955,128.878 227.455,133.711 224,139.5C 221.421,148.698 219.421,158.032 218,167.5C 204.898,198.14 181.731,211.306 148.5,207C 122.475,200.307 106.641,183.807 101,157.5C 100.72,97.5498 125.887,51.7165 176.5,20C 195.647,9.22923 215.98,2.3959 237.5,-0.5 Z M 254.5,29.5 C 296.719,30.8578 330.553,48.1911 356,81.5C 385.056,125.96 387.056,171.626 362,218.5C 345.051,245.236 321.551,263.736 291.5,274C 288.131,276.365 285.964,279.532 285,283.5C 284.667,300.167 284.333,316.833 284,333.5C 279.506,347.654 269.839,355.654 255,357.5C 240.972,356.138 231.639,348.805 227,335.5C 225.873,319.709 225.373,303.876 225.5,288C 225.373,272.124 225.873,256.291 227,240.5C 231.018,230.48 238.185,223.98 248.5,221C 273.423,221.285 293.59,211.785 309,192.5C 323.138,169.405 324.138,145.738 312,121.5C 291.474,91.9913 263.974,82.8246 229.5,94C 212.605,101.228 200.772,113.395 194,130.5C 191.7,141.287 189.033,151.954 186,162.5C 173.436,178.677 158.603,181.177 141.5,170C 134.289,163.241 130.956,154.908 131.5,145C 137.161,93.6673 163.827,58.0006 211.5,38C 225.561,33.0208 239.894,30.1875 254.5,29.5 Z"/></g>
<g><path style="opacity:1" fill="#fefffe" d="M 265.5,511.5 C 258.833,511.5 252.167,511.5 245.5,511.5C 216.105,502.415 202.938,482.415 206,451.5C 212.537,425.793 229.037,412.46 255.5,411.5C 281.963,412.46 298.463,425.793 305,451.5C 308.062,482.415 294.895,502.415 265.5,511.5 Z M 249.5,442.5 C 267.648,441.148 275.815,449.481 274,467.5C 267.178,481.042 257.011,484.209 243.5,477C 235.602,468.745 234.435,459.579 240,449.5C 242.79,446.535 245.957,444.202 249.5,442.5 Z"/></g>
</svg>
