<?xml version="1.0" standalone="no"?>
<!DOCTYPE svg PUBLIC "-//W3C//DTD SVG 20010904//EN"
 "http://www.w3.org/TR/2001/REC-SVG-20010904/DTD/svg10.dtd">
<svg version="1.0" xmlns="http://www.w3.org/2000/svg"
 width="48.000000pt" height="48.000000pt" viewBox="0 0 48.000000 48.000000"
 preserveAspectRatio="xMidYMid meet">

<g transform="translate(0.000000,48.000000) scale(0.100000,-0.100000)"
fill="#FFFFFF" stroke="none">
<path d="M182 420 c-36 -22 -68 -79 -58 -105 9 -25 29 -13 38 23 16 62 89 82
133 37 41 -40 34 -77 -26 -135 -37 -36 -50 -55 -47 -72 4 -28 31 -31 36 -3 2
11 23 38 47 60 24 22 47 53 50 68 16 62 -50 147 -114 147 -14 0 -41 -9 -59
-20z"/>
<path d="M224 89 c-10 -17 13 -36 27 -22 12 12 4 33 -11 33 -5 0 -12 -5 -16
-11z"/>
</g>
</svg>
