<?xml version="1.0" encoding="UTF-8"?>
<!DOCTYPE svg PUBLIC "-//W3C//DTD SVG 1.1//EN" "http://www.w3.org/Graphics/SVG/1.1/DTD/svg11.dtd">
<svg xmlns="http://www.w3.org/2000/svg" version="1.1" width="512px" height="512px" style="shape-rendering:geometricPrecision; text-rendering:geometricPrecision; image-rendering:optimizeQuality; fill-rule:evenodd; clip-rule:evenodd" xmlns:xlink="http://www.w3.org/1999/xlink">
<g><path style="opacity:1" fill="#fefffe" d="M 223.5,-0.5 C 244.167,-0.5 264.833,-0.5 285.5,-0.5C 301.885,4.04709 313.052,14.3804 319,30.5C 321.266,40.7649 323.1,51.0983 324.5,61.5C 330.903,63.1355 337.07,65.4689 343,68.5C 351.49,62.6816 359.99,56.8483 368.5,51C 388.204,42.379 406.204,45.0457 422.5,59C 435.398,71.2285 447.564,84.0618 459,97.5C 468.311,115.417 467.311,132.751 456,149.5C 451.133,155.401 446.633,161.567 442.5,168C 444.732,173.524 447.065,179.024 449.5,184.5C 458.386,186.76 467.386,188.593 476.5,190C 494.682,195.016 506.348,206.516 511.5,224.5C 511.5,245.167 511.5,265.833 511.5,286.5C 507.441,301.736 498.108,312.569 483.5,319C 472.739,321.543 461.906,323.71 451,325.5C 447.417,330.886 444.583,336.719 442.5,343C 449.032,351.891 455.199,361.058 461,370.5C 467.943,387.11 466.276,402.776 456,417.5C 443.167,430.333 430.333,443.167 417.5,456C 401.049,466.866 384.049,467.866 366.5,459C 358.737,453.371 350.904,447.871 343,442.5C 337.442,444.696 331.942,447.029 326.5,449.5C 323.896,460.786 321.396,472.12 319,483.5C 312.569,498.108 301.736,507.441 286.5,511.5C 265.833,511.5 245.167,511.5 224.5,511.5C 208.115,506.953 196.948,496.62 191,480.5C 189.045,470.096 186.878,459.763 184.5,449.5C 179.274,447.26 174.107,444.926 169,442.5C 160.921,448.456 152.755,454.289 144.5,460C 127.251,468.153 110.584,467.153 94.5,457C 81.3333,443.833 68.1667,430.667 55,417.5C 43.6667,399.5 43.6667,381.5 55,363.5C 59.9552,357.089 64.7885,350.589 69.5,344C 66.8713,338.575 64.3713,333.075 62,327.5C 50.5497,324.951 39.0497,322.451 27.5,320C 12.8925,313.569 3.55916,302.736 -0.5,287.5C -0.5,266.833 -0.5,246.167 -0.5,225.5C 4.76184,207.073 16.7618,195.573 35.5,191C 44.1605,189.39 52.8272,187.89 61.5,186.5C 63.131,180.402 65.4644,174.568 68.5,169C 61.3822,159.934 54.8822,150.434 49,140.5C 41.9093,121.621 44.9093,104.621 58,89.5C 69.5291,77.6369 81.3624,66.1369 93.5,55C 107.65,45.9108 122.65,44.2441 138.5,50C 148.434,55.8822 157.934,62.3822 167,69.5C 172.425,66.8713 177.925,64.3713 183.5,62C 185.929,51.9357 188.096,41.769 190,31.5C 195.524,14.807 206.691,4.14031 223.5,-0.5 Z M 233.5,29.5 C 247.504,29.3334 261.504,29.5001 275.5,30C 283.42,30.5868 288.253,34.7534 290,42.5C 291.704,55.7301 294.37,68.7301 298,81.5C 299.873,83.7089 302.04,85.5422 304.5,87C 316.505,90.8362 328.171,95.5029 339.5,101C 343.211,102.709 346.878,102.709 350.5,101C 362.167,93.3333 373.833,85.6667 385.5,78C 389.578,76.3396 393.578,76.673 397.5,79C 409,90.5 420.5,102 432,113.5C 435.372,119.335 435.039,125.002 431,130.5C 423.611,140.223 416.611,150.223 410,160.5C 409.333,164.167 409.333,167.833 410,171.5C 415.552,183.271 420.552,195.271 425,207.5C 427.365,210.869 430.532,213.036 434.5,214C 446.853,216.226 459.187,218.559 471.5,221C 477.487,223.462 480.654,227.962 481,234.5C 481.667,248.5 481.667,262.5 481,276.5C 480.654,283.038 477.487,287.538 471.5,290C 460.208,292.215 448.875,294.215 437.5,296C 431.689,296.822 427.189,299.655 424,304.5C 420.115,316.156 415.448,327.489 410,338.5C 408.584,342.585 408.584,346.585 410,350.5C 417.275,362.107 424.942,373.44 433,384.5C 434.925,389.439 434.259,394.106 431,398.5C 419.833,409.667 408.667,420.833 397.5,432C 392.5,435.333 387.5,435.333 382.5,432C 373.167,425.333 363.833,418.667 354.5,412C 349.415,408.72 344.081,408.053 338.5,410C 326.997,415.39 315.331,420.39 303.5,425C 300.266,426.944 298.1,429.778 297,433.5C 294.666,446.169 292.333,458.836 290,471.5C 287.538,477.487 283.038,480.654 276.5,481C 262.5,481.667 248.5,481.667 234.5,481C 226.58,480.413 221.747,476.247 220,468.5C 218.108,456.814 216.108,445.148 214,433.5C 211.698,427.746 207.531,423.912 201.5,422C 191.275,418.554 181.275,414.554 171.5,410C 166.106,408.967 161.106,409.967 156.5,413C 146.777,420.389 136.777,427.389 126.5,434C 121.889,435.007 117.555,434.34 113.5,432C 102.667,421.167 91.8333,410.333 81,399.5C 76.8207,394.08 76.4873,388.413 80,382.5C 88.1142,372.383 95.4475,361.716 102,350.5C 102.667,347.167 102.667,343.833 102,340.5C 96.0828,328.414 90.7495,316.08 86,303.5C 83.5589,301.031 80.7256,299.198 77.5,298C 64.7911,295.882 52.1245,293.549 39.5,291C 33.5129,288.538 30.3463,284.038 30,277.5C 29.3333,263.5 29.3333,249.5 30,235.5C 30.6953,227.138 35.1953,222.304 43.5,221C 54.8721,219.216 66.2055,217.216 77.5,215C 81.6118,213.221 84.7785,210.388 87,206.5C 90.8362,194.495 95.5029,182.829 101,171.5C 102.033,166.106 101.033,161.106 98,156.5C 90.6107,146.777 83.6107,136.777 77,126.5C 75.993,121.889 76.6597,117.555 79,113.5C 90.8954,100.935 103.395,89.1021 116.5,78C 119.928,77.2989 123.262,77.6323 126.5,79C 137.56,87.0581 148.893,94.7247 160.5,102C 163.833,102.667 167.167,102.667 170.5,102C 182.586,96.0828 194.92,90.7495 207.5,86C 209.969,83.5589 211.802,80.7256 213,77.5C 215.238,64.0664 217.905,50.7331 221,37.5C 224.036,32.9463 228.202,30.2797 233.5,29.5 Z M 247.5,186.5 C 276.652,184.992 299.152,196.326 315,220.5C 329.489,248.687 327.156,275.354 308,300.5C 282.354,326.246 253.188,331.08 220.5,315C 192.615,296.365 182.115,270.532 189,237.5C 198.17,208.519 217.67,191.519 247.5,186.5 Z"/></g>
<g><path style="opacity:1" fill="#fefffe" d="M 244.5,155.5 C 287.613,153.137 320.447,170.137 343,206.5C 362.746,246.852 359.079,284.852 332,320.5C 302.642,351.718 267.142,361.885 225.5,351C 185.697,336.581 162.53,308.414 156,266.5C 153.149,223.364 169.983,190.531 206.5,168C 218.588,161.692 231.254,157.526 244.5,155.5 Z M 247.5,186.5 C 217.67,191.519 198.17,208.519 189,237.5C 182.115,270.532 192.615,296.365 220.5,315C 253.188,331.08 282.354,326.246 308,300.5C 327.156,275.354 329.489,248.687 315,220.5C 299.152,196.326 276.652,184.992 247.5,186.5 Z"/></g>
</svg>
