<?xml version="1.0" encoding="UTF-8"?>
<!DOCTYPE svg PUBLIC "-//W3C//DTD SVG 1.1//EN" "http://www.w3.org/Graphics/SVG/1.1/DTD/svg11.dtd">
<svg xmlns="http://www.w3.org/2000/svg" version="1.1" width="512px" height="512px" style="shape-rendering:geometricPrecision; text-rendering:geometricPrecision; image-rendering:optimizeQuality; fill-rule:evenodd; clip-rule:evenodd" xmlns:xlink="http://www.w3.org/1999/xlink">
<g><path style="opacity:1" fill="#fefffe" d="M -0.5,105.5 C -0.5,99.8333 -0.5,94.1667 -0.5,88.5C 6.37267,69.3839 20.0393,60.8839 40.5,63C 62.7609,69.6716 71.5942,84.5049 67,107.5C 59.5162,126.28 45.6829,134.113 25.5,131C 12.3175,126.983 3.65084,118.483 -0.5,105.5 Z"/></g>
<g><path style="opacity:1" fill="#fefffe" d="M 511.5,87.5 C 511.5,92.5 511.5,97.5 511.5,102.5C 508.021,113.095 500.687,119.262 489.5,121C 373.167,121.667 256.833,121.667 140.5,121C 122.312,116.461 115.145,104.961 119,86.5C 121.904,77.9304 127.737,72.4304 136.5,70C 255.167,69.3333 373.833,69.3333 492.5,70C 501.584,72.9195 507.917,78.7528 511.5,87.5 Z"/></g>
<g><path style="opacity:1" fill="#fefffe" d="M -0.5,263.5 C -0.5,258.167 -0.5,252.833 -0.5,247.5C 5.59074,228.77 18.5907,219.937 38.5,221C 62.2938,227.141 71.7938,242.307 67,266.5C 58.8154,285.177 44.6487,292.677 24.5,289C 11.2357,285.237 2.90241,276.737 -0.5,263.5 Z"/></g>
<g><path style="opacity:1" fill="#fefffe" d="M 511.5,248.5 C 511.5,253.167 511.5,257.833 511.5,262.5C 508.241,272.256 501.575,278.422 491.5,281C 373.833,281.667 256.167,281.667 138.5,281C 121.497,275.498 114.997,263.998 119,246.5C 122.763,237.735 129.263,232.235 138.5,230C 256.167,229.333 373.833,229.333 491.5,230C 501.575,232.578 508.241,238.744 511.5,248.5 Z"/></g>
<g><path style="opacity:1" fill="#fefffe" d="M -0.5,422.5 C -0.5,416.833 -0.5,411.167 -0.5,405.5C 9.07565,381.72 26.0756,374.22 50.5,383C 66.7837,393.847 71.9504,408.681 66,427.5C 57.8355,443.668 44.6689,450.501 26.5,448C 12.7333,444.396 3.73326,435.896 -0.5,422.5 Z"/></g>
<g><path style="opacity:1" fill="#fefffe" d="M 511.5,408.5 C 511.5,413.5 511.5,418.5 511.5,423.5C 507.917,432.247 501.584,438.08 492.5,441C 373.833,441.667 255.167,441.667 136.5,441C 119.638,434.111 114.138,421.945 120,404.5C 124.302,396.098 131.135,391.265 140.5,390C 256.833,389.333 373.167,389.333 489.5,390C 500.687,391.738 508.021,397.905 511.5,408.5 Z"/></g>
</svg>
